<svg xmlns="http://www.w3.org/2000/svg" xmlns:xlink="http://www.w3.org/1999/xlink" viewBox="0 0 2118.13 376.882"><defs><path id="a" d="M0 0h2118.126v376.88H0z"/></defs><clipPath id="b"><use xlink:href="#a" overflow="visible"/></clipPath><path clip-path="url(#b)" d="M1310.874 219.548c0 17.443 9.667 37.688 47.397 38.148 26.69 0 38.66-12.888 38.66-24.847 0-44.646-142.19.45-142.19-98.02 0-41.878 37.27-75.47 96.174-75.47 58.9 0 96.175 31.29 99.344 80.273h-58.903c-.404-15.855-2.702-35.175-37.68-35.175-21.17 0-38.654 5.98-38.654 22.083 0 45.56 145.416 5.98 145.416 95.718 0 56.606-47.856 78.694-105.84 78.694-63.042 0-102.616-33.138-104.46-81.407h60.744zM1610.18 61.663v51.54h-59.818V216.74c0 22.09 10.584 30.372 33.13 30.372h26.69v49.698h-26.69c-62.123 0-91.113-28.53-91.113-79.61v-104h-34.06V61.66h34.055V0h57.982v61.663h59.82zm59.034 118.72c0 37.737 28.988 67.65 65.804 67.65 40.037 0 69.024-29.913 69.024-67.65 0-37.273-29.912-67.642-69.024-67.642-36.816 0-65.804 30.37-65.804 67.648m133.91 99.4s-23.933 20.707-70.868 20.707c-64.424 0-119.644-52.458-119.644-120.106 0-67.644 55.22-121.483 119.644-121.483 43.256 0 70.868 20.707 70.868 20.707v-17.95h57.98V296.81h-57.98v-17.027zm210.304-162.9c-46.48 0-69.487 27.15-69.487 69.486v110.44h-57.98V61.664h57.52v34.05s21.17-37.27 69.95-37.27v58.443zM187.266 219.548c0 17.442 9.667 37.69 47.398 38.15 26.687 0 38.655-12.89 38.655-24.85 0-44.643-142.198.454-142.198-98.02 0-41.875 37.273-75.466 96.176-75.466 58.9 0 96.174 31.288 99.343 80.272h-58.9c-.405-15.855-2.71-35.175-37.68-35.175-21.17 0-38.653 5.98-38.653 22.08 0 45.56 145.415 5.98 145.415 95.718 0 56.604-47.857 78.692-105.84 78.692-63.043 0-102.617-33.138-104.46-81.407h60.743zm324.487 77.26V272.88s-22.09 28.07-69.487 28.07c-55.22 0-91.113-37.737-91.113-94.8V61.662h57.522v136.21c0 29.916 17.485 49.7 46.016 49.7 34.06 0 56.6-21.17 56.6-55.68V61.667h57.53V296.81h-57.063zm138.052-116.426c0 37.74 28.988 67.648 69.024 67.648 36.81 0 65.8-29.91 65.8-67.647 0-37.27-28.994-67.643-65.805-67.643-39.113 0-69.025 30.373-69.025 67.644m.92-100.775s28.53-20.71 70.87-20.71c64.422 0 119.643 53.84 119.643 121.483 0 67.648-55.22 120.106-119.643 120.106-45.56 0-70.87-20.707-70.87-20.707v97.098h-57.98V61.663h57.98V79.61zm388.453 75.525c-1.558-25.937-25.314-49.3-59.366-49.3-32.21 0-57.386 16.4-63.968 49.3h123.33zm54.355 86.51c-26.287 39.978-63.1 60.687-115.563 60.687-75.466 0-121.944-53.383-121.944-122.41 0-67.183 48.778-122.4 123.787-122.4 75.47 0 119.646 50.62 119.646 119.18 0 11.503-1.382 23.067-1.382 23.067H914c3.99 30.7 29.912 52.404 65.804 52.404 30.83 0 51.998-12.89 68.16-36.76l45.56 26.23zm149.895-124.764c-46.48 0-69.486 27.15-69.486 69.488v110.44h-57.98V61.663h57.517v34.05s21.17-37.272 69.95-37.272v58.446z"/><defs><path id="c" d="M2106.068 162.918l-5.88-5.88-5.88 5.88-5.885-5.88-5.89 5.88-5.878-5.88-5.882 5.88-5.887-5.88-5.882 5.88-5.884-5.88-5.886 5.88-5.883-5.88-5.874 5.88-5.887-5.88-5.88 5.88-5.888-5.88-5.88 5.88-5.89-5.88-5.88 5.88-5.883-5.88-5.88 5.88-5.89-5.88-5.88 5.88-5.88-5.88-5.885 5.88-5.878-5.88-5.888 5.88-5.88-5.88-5.89 5.88-5.88-5.88-5.89 5.88-5.875-5.88-5.89 5.88-5.878-5.88-5.882 5.88-5.884-5.88-5.886 5.88-5.883-5.88-5.88 5.88-5.886-5.88-5.88 5.88-5.888-5.88-5.878 5.88-5.888-5.88-5.88 5.88-5.886-5.88-5.885 5.88-5.88-5.88-5.887 5.88-5.884-5.88-5.883 5.88-5.876-5.88-5.89 5.88-5.88-5.88-5.884 5.88-5.88-5.88-5.883 5.88-5.886-5.88-5.883 5.88-5.882-5.88-5.883 5.88-5.883-5.88-5.885 5.88-5.884-5.88-5.886 5.88-5.883-5.88-5.885 5.88-5.882-5.88-5.886 5.88-5.88-5.88-5.884 5.88-5.883-5.88-5.88 5.88-5.884-5.88-5.884 5.88-5.882-5.88-5.884 5.88-5.885-5.88-5.88 5.88-5.883-5.88-5.88 5.88-5.886-5.88-5.88 5.88-5.884-5.88-5.885 5.88-5.885-5.88-5.88 5.88-5.884-5.88-5.884 5.88-5.874-5.88-5.89 5.88-5.88-5.88-5.884 5.88-5.883-5.88-5.885 5.88-5.884-5.88-5.884 5.88-5.883-5.88-5.885 5.88-5.882-5.88-5.88 5.88-5.886-5.88-5.882 5.88-5.883-5.88-5.88 5.88-5.89-5.88-5.88 5.88-5.89-5.88-5.876 5.88-5.885-5.88-5.882 5.88-5.882-5.88-5.884 5.88-5.88-5.88-5.885 5.88-5.878-5.88-5.89 5.88-5.88-5.88-5.887 5.88-5.88-5.88-5.883 5.88-5.884-5.88-5.882 5.88-5.883-5.88-5.883 5.88-5.885-5.88-5.884 5.88-5.88-5.88-5.887 5.88-5.884-5.88-5.88 5.88-5.88-5.88-5.89 5.88-5.88-5.88-5.885 5.88-5.88-5.88-5.883 5.88-5.74-5.733v-.146l-.073.063-.07-.068-5.808 5.81-5.815-5.81-.076.067-.065-.068-5.813 5.81-5.81-5.81-.07.067-.073-.067-5.81 5.81-5.81-5.81-.075.067-.074-.067v.145l-5.74 5.732-5.88-5.88-5.89 5.88-5.88-5.88-5.882 5.88-5.886-5.88-5.88 5.88-5.886-5.88-5.88 5.88-5.887-5.88-5.876 5.88-5.89-5.88-5.88 5.88-5.887-5.88-5.88 5.88-5.89-5.88-5.877 5.88-5.88-5.88-5.884 5.88-5.884-5.88-5.88 5.88-5.88-5.88-5.89 5.88-5.878-5.88-5.887 5.88-5.88-5.88-5.89 5.88-5.878-5.88-5.885 5.88-5.883-5.88-5.885 5.88-5.88-5.88-5.884 5.88-5.882-5.88-5.88 5.88-5.886-5.88-5.883 5.88-5.88-5.88-5.88 5.88-5.883-5.88-5.884 5.88-5.88-5.88-5.887 5.88-5.885-5.88-5.882 5.88-5.88-5.88-5.887 5.88-5.884-5.88-5.88 5.88-5.885-5.88-5.88 5.88-5.886-5.88-5.88 5.88-5.888-5.88-5.88 5.88-5.88-5.88-5.89 5.88-5.883-5.88-5.88 5.88-5.884-5.88-5.886 5.88-5.877-5.88-5.888 5.88-5.88-5.88-5.884 5.88-5.882-5.88-5.89 5.88-5.88-5.88-5.886 5.88-5.88-5.88-5.884 5.88-5.883-5.88-5.88 5.88-5.886-5.88-5.88 5.88-5.89-5.88-5.875 5.88-5.89-5.88-5.88 5.88-5.884-5.88-5.88 5.88-5.884-5.88-5.887 5.88-5.878-5.88-5.888 5.88-5.883-5.88-5.887 5.88-5.882-5.88-5.887 5.88-5.88-5.88-5.88 5.88-5.882-5.88-5.885 5.88-5.88-5.88-5.886 5.88-5.884-5.88-5.884 5.88-5.88-5.88-5.887 5.88-5.884-5.88-5.883 5.88-5.88-5.88-5.883 5.88-5.883-5.88-5.886 5.88-5.88-5.88-5.884 5.88-5.88-5.88-5.887 5.88-5.885-5.88-5.883 5.88-5.88-5.88-5.882 5.88-5.888-5.88-5.878 5.88-5.89-5.88-5.88 5.88-5.887-5.88-5.88 5.88-5.89-5.88-5.878 5.88-5.88-5.88-5.887 5.88-5.88-5.88-5.887 5.88-5.88-5.88-5.89 5.88-5.877-5.88-5.89 5.88-5.88-5.88-5.89 5.88-5.875-5.88-5.887 5.88-5.88-5.88-5.884 5.88-5.883-5.88-5.877 5.88-5.89-5.88-5.88 5.88-5.887-5.88-5.88 5.88-5.885-5.88-5.88 5.88-5.887-5.88-5.882 5.88-5.88-5.88-5.885 5.88-5.884-5.88-5.883 5.88-5.883-5.88-5.883 5.88-5.88-5.88-5.886 5.88-5.878-5.88-5.89 5.88-5.88-5.88-5.88 5.88-5.885-5.88-5.884 5.88-5.88-5.88-5.886 5.88-5.887-5.88-5.884 5.88-5.88-5.88-5.887 5.88-5.884-5.88-5.88 5.88-5.88-5.88-5.885 5.88-5.883-5.88-5.884 5.88-5.886-5.88-5.886 5.88-5.88-5.88-5.886 5.88-5.886-5.88-5.882 5.88-5.884-5.88-5.878 5.88-5.89-5.88-5.876 5.88-5.89-5.88-5.88 5.88-5.886-5.88-5.88 5.88-5.89-5.88-5.878 5.88-5.88-5.88-5.886 5.88-5.878-5.88-5.887 5.88-5.88-5.88-5.89 5.88-5.878-5.88-5.887 5.88-5.88-5.88-5.89 5.88-5.878-5.88-5.882 5.88-5.887-5.88-5.88 5.88-5.887-5.88-5.88 5.88-5.89-5.88-5.876 5.88-5.887-5.88-5.88 5.88-5.884-5.88-5.882 5.88-5.882-5.88-5.884 5.88-5.88-5.88-5.887 5.88-5.885-5.88L0 162.92v29.42l5.884 5.88 5.884-5.88 5.888 5.88 5.88-5.88 5.883 5.88 5.88-5.88 5.88 5.88 5.885-5.88 5.878 5.88 5.887-5.88 5.88 5.88 5.89-5.88 5.88 5.88 5.887-5.88 5.88 5.88 5.886-5.88 5.882 5.88 5.878-5.88 5.89 5.88 5.88-5.88 5.887 5.88 5.88-5.88 5.89 5.88 5.88-5.88 5.888 5.88 5.878-5.88 5.885 5.88 5.885-5.88 5.884 5.88 5.884-5.88 5.88 5.88 5.888-5.88 5.88 5.88 5.89-5.88 5.876 5.88 5.89-5.88 5.88 5.88 5.883-5.88 5.88 5.88 5.887-5.88 5.884 5.88 5.88-5.88 5.886 5.88 5.884-5.88 5.883 5.88 5.885-5.88 5.883 5.88 5.88-5.88 5.88 5.88 5.89-5.88 5.88 5.88 5.88-5.88 5.888 5.88 5.883-5.88 5.885 5.88 5.88-5.88 5.886 5.88 5.885-5.88 5.88 5.88 5.88-5.88 5.89 5.88 5.88-5.88 5.88 5.88 5.885-5.88 5.88 5.88 5.884-5.88 5.884 5.88 5.884-5.88 5.884 5.88 5.882-5.88 5.88 5.88 5.888-5.88 5.88 5.88 5.885-5.88 5.88 5.88 5.888-5.88 5.88 5.88 5.89-5.88 5.88 5.88 5.882-5.88 5.884 5.88 5.88-5.88 5.886 5.88 5.878-5.88 5.89 5.88 5.88-5.88 5.888 5.88 5.876-5.88 5.89 5.88 5.88-5.88 5.887 5.88 5.88-5.88 5.883 5.88 5.88-5.88 5.885 5.88 5.885-5.88 5.882 5.88 5.883-5.88 5.88 5.88 5.89-5.88 5.88 5.88 5.887-5.88 5.882 5.88 5.88-5.88 5.883 5.88 5.885-5.88 5.884 5.88 5.88-5.88 5.884 5.88 5.883-5.88 5.882 5.88 5.88-5.88 5.89 5.88 5.88-5.88 5.88 5.88 5.883-5.88 5.884 5.88 5.88-5.88 5.886 5.88 5.884-5.88 5.884 5.88 5.88-5.88 5.887 5.88 5.884-5.88 5.88 5.88 5.88-5.88 5.89 5.88 5.88-5.88 5.885 5.88 5.884-5.88 5.887 5.88 5.877-5.88 5.888 5.88 5.883-5.88 5.88 5.88 5.887-5.88 5.877 5.88 5.89-5.88 5.88 5.88 5.884-5.88 5.88 5.88 5.886-5.88 5.88 5.88 5.883-5.88 5.883 5.88 5.88-5.88 5.885 5.88 5.88-5.88 5.89 5.88 5.88-5.88 5.885 5.88 5.88-5.88 5.886 5.88 5.88-5.88 5.885 5.88 5.884-5.88 5.88 5.88 5.884-5.88 5.887 5.88 5.884-5.88 5.88 5.88 5.888-5.88 5.88 5.88 5.888-5.88 5.88 5.88 5.883-5.88 5.88 5.88 5.885-5.88 5.886 5.88 5.88-5.88 5.887 5.88 5.887-5.88 5.885 5.88 5.88-5.88 5.884 5.88 5.884-5.88 5.88 5.88 5.88-5.88 5.885 5.88 5.886-5.88 5.883 5.88 5.883-5.88 5.885 5.88 5.88-5.88 5.888 5.88 5.884-5.88 5.885 5.88 5.88-5.88 5.884 5.88 5.886-5.88 5.89 5.88 5.88-5.88 5.89 5.88 5.876-5.88 5.882 5.88 5.883-5.88 5.885 5.88 5.882-5.88 5.877 5.88 5.89-5.88 5.88 5.88 5.888-5.88 5.88 5.88 5.89-5.88 5.877 5.88 5.89-5.88 5.878 5.88 5.885-5.88 5.88 5.88 5.887-5.88 5.883 5.88 5.88-5.88 5.886 5.88 5.88-5.88 5.74 5.74v.14l.072-.073.074.073 5.81-5.81 5.81 5.81.073-.073.073.073 5.81-5.81 5.81 5.81.068-.073.08.073 5.813-5.81 5.81 5.81.07-.073.073.073v-.14l5.74-5.74 5.883 5.88 5.878-5.88 5.888 5.88 5.886-5.88 5.884 5.88 5.88-5.88 5.88 5.88 5.885-5.88 5.886 5.88 5.88-5.88 5.884 5.88 5.884-5.88 5.883 5.88 5.885-5.88 5.882 5.88 5.883-5.88 5.88 5.88 5.884-5.88 5.885 5.88 5.88-5.88 5.89 5.88 5.88-5.88 5.883 5.88 5.884-5.88 5.884 5.88 5.885-5.88 5.883 5.88 5.887-5.88 5.88 5.88 5.887-5.88 5.878 5.88 5.89-5.88 5.88 5.88 5.887-5.88 5.877 5.88 5.884-5.88 5.884 5.88 5.882-5.88 5.883 5.88 5.88-5.88 5.884 5.88 5.883-5.88 5.887 5.88 5.882-5.88 5.882 5.88 5.88-5.88 5.89 5.88 5.876-5.88 5.885 5.88 5.886-5.88 5.88 5.88 5.885-5.88 5.88 5.88 5.89-5.88 5.88 5.88 5.886-5.88 5.88 5.88 5.887-5.88 5.88 5.88 5.883-5.88 5.883 5.88 5.88-5.88 5.885 5.88 5.885-5.88 5.882 5.88 5.878-5.88 5.89 5.88 5.88-5.88 5.886 5.88 5.883-5.88 5.884 5.88 5.882-5.88 5.882 5.88 5.883-5.88 5.885 5.88 5.883-5.88 5.883 5.88 5.883-5.88 5.882 5.88 5.885-5.88 5.883 5.88 5.88-5.88 5.887 5.88 5.877-5.88 5.886 5.88 5.884-5.88 5.883 5.88 5.884-5.88 5.887 5.88 5.88-5.88 5.886 5.88 5.884-5.88 5.88 5.88 5.887-5.88 5.876 5.88 5.887-5.88 5.88 5.88 5.887-5.88 5.88 5.88 5.885-5.88 5.884 5.88 5.885-5.88 5.88 5.88 5.88-5.88 5.89 5.88 5.877-5.88 5.89 5.88 5.878-5.88 5.89 5.88 5.88-5.88 5.887 5.88 5.88-5.88 5.888 5.88 5.877-5.88 5.88 5.88 5.89-5.88 5.88 5.88 5.886-5.88 5.88 5.88 5.89-5.88 5.878 5.88 5.89-5.88 5.88 5.88 5.886-5.88 5.88 5.88 5.88-5.88 5.887 5.88 5.884-5.88 5.882 5.88 5.886-5.88 5.88 5.88 5.88-5.88 5.89 5.88 5.885-5.88 5.88 5.88 5.88-5.88 5.883 5.88 5.883-5.88.29.283v-29.988l-.29.286-5.882-5.88z"/></defs><clipPath id="d"><use xlink:href="#c" overflow="visible"/></clipPath><linearGradient id="e" gradientUnits="userSpaceOnUse" y1="376.882" x2="1" y2="376.882" gradientTransform="matrix(2118.126 0 0 2118.126 0 -798104.125)"><stop offset="0" stop-color="#98262B"/><stop offset=".04" stop-color="#CF202F"/><stop offset=".08" stop-color="#E73E30"/><stop offset=".12" stop-color="#F58673"/><stop offset=".16" stop-color="#FAAD76"/><stop offset=".2" stop-color="#F5831F"/><stop offset=".24" stop-color="#F6A81C"/><stop offset=".28" stop-color="#FEDC00"/><stop offset=".32" stop-color="#CEDB28"/><stop offset=".36" stop-color="#039949"/><stop offset=".4" stop-color="#2C5135"/><stop offset=".44" stop-color="#164734"/><stop offset=".48" stop-color="#009878"/><stop offset=".52" stop-color="#3FC2CD"/><stop offset=".56" stop-color="#046F97"/><stop offset=".6" stop-color="#092041"/><stop offset=".64" stop-color="#1E4489"/><stop offset=".68" stop-color="#2559A9"/><stop offset=".72" stop-color="#5F8AB5"/><stop offset=".76" stop-color="#A9BCD6"/><stop offset=".8" stop-color="#7873B6"/><stop offset=".84" stop-color="#5E2B85"/><stop offset=".88" stop-color="#904299"/><stop offset=".92" stop-color="#F8B0B8"/><stop offset=".96" stop-color="#F27598"/><stop offset="1" stop-color="#EF5296"/></linearGradient><path clip-path="url(#d)" fill="url(#e)" d="M0 157.04h2118.126v41.178H0z"/><defs><path id="f" d="M2106.074 97.264l-5.886-5.885-5.883 5.873-5.884-5.878-5.88 5.884-5.886-5.885-5.88 5.877-5.883-5.878-5.884 5.884-5.882-5.887-5.885 5.885-5.884-5.886-5.878 5.884-5.887-5.885-5.88 5.877-5.886-5.878-5.88 5.883-5.882-5.885-5.883 5.876-5.884-5.878-5.88 5.883-5.886-5.885-5.884 5.876-5.876-5.877-5.89 5.877-5.878-5.877-5.89 5.884-5.88-5.885-5.887 5.877-5.88-5.88-5.888 5.884-5.88-5.886-5.885 5.883-5.88-5.884-5.885 5.878-5.885-5.878-5.882 5.884-5.883-5.885-5.88 5.884-5.888-5.885-5.88 5.876-5.89-5.877-5.88 5.883-5.884-5.884-5.883 5.884-5.884-5.885-5.887 5.878-5.88-5.88-5.885 5.885-5.885-5.885-5.883 5.877-5.877-5.878-5.89 5.876-5.88-5.878-5.883 5.884-5.88-5.886-5.885 5.878-5.886-5.88-5.885 5.885-5.886-5.885-5.885 5.884-5.88-5.886-5.886 5.883-5.885-5.885-5.88 5.884-5.88-5.886-5.89 5.884-5.88-5.884-5.886 5.877-5.88-5.877-5.884 5.884-5.882-5.886-5.883 5.885-5.884-5.886-5.884 5.877-5.88-5.877-5.88 5.883-5.89-5.885-5.88 5.886-5.886-5.885-5.88 5.885-5.886-5.886-5.88 5.875-5.883-5.878-5.885 5.884-5.885-5.885-5.88 5.877-5.885-5.877-5.885 5.884-5.878-5.886-5.89 5.876-5.88-5.88-5.89 5.878-5.877-5.877-5.885 5.886-5.885-5.885-5.88 5.878-5.886-5.88-5.88 5.878-5.89-5.878-5.88 5.884-5.886-5.884-5.88 5.883-5.884-5.885-5.88 5.878-5.885-5.877-5.883 5.885-5.882-5.883-5.883 5.878-5.885-5.878-5.882 5.884-5.883-5.885-5.884 5.884-5.882-5.886-5.884 5.876-5.88-5.878-5.885 5.884-5.883-5.886-5.882 5.885-5.885-5.886-5.88 5.876-5.885-5.877-5.883 5.882-5.884-5.886-5.886 5.877-5.885-5.877-5.886 5.877-5.88-5.878-5.888 5.883-5.878-5.885-5.888 5.878-5.88-5.877-5.89 5.877-5.877-5.877-5.88 5.884-5.887-5.885-5.886 5.876-5.736-5.74v-.14l-.08.07-.07-.07-5.81 5.81-5.81-5.81-.08.07-.066-.07-5.81 5.81-5.81-5.81-.07.07-.074-.07-5.81 5.81-5.81-5.81-.07.07-.078-.07v.14l-5.743 5.745-5.88-5.884-5.884 5.876-5.88-5.877-5.88 5.882-5.89-5.885-5.88 5.878-5.886-5.878-5.88 5.877-5.888-5.88-5.876 5.878-5.89-5.878-5.88 5.877-5.884-5.877-5.88 5.876-5.886-5.878-5.884 5.876-5.882-5.877-5.884 5.885-5.884-5.885-5.882 5.878-5.885-5.878-5.884 5.884-5.882-5.884-5.88 5.876-5.885-5.878-5.886 5.884-5.88-5.885-5.884 5.876-5.883-5.878-5.886 5.884-5.88-5.886-5.884 5.878-5.884-5.878-5.883 5.877-5.88-5.876-5.89 5.877-5.88-5.877-5.882 5.876-5.884-5.88-5.884 5.884-5.88-5.884-5.887 5.877-5.885-5.878-5.884 5.882-5.88-5.885-5.884 5.877-5.886-5.878-5.88 5.883-5.885-5.885-5.88 5.876-5.886-5.88-5.88 5.886-5.888-5.885-5.882 5.877-5.88-5.876-5.887 5.877-5.878-5.878-5.89 5.876-5.88-5.88-5.89 5.877-5.877-5.878-5.888 5.883-5.88-5.886-5.883 5.876-5.88-5.878-5.884 5.884-5.885-5.886-5.882 5.878-5.883-5.878-5.884 5.884-5.884-5.885-5.88 5.876-5.89-5.88-5.88 5.885-5.887-5.885-5.876 5.877-5.888-5.878-5.885 5.883-5.882-5.885-5.884 5.878-5.88-5.878-5.888 5.884-5.878-5.886-5.89 5.876-5.88-5.878-5.887 5.877-5.886-5.88-5.88 5.886-5.884-5.885-5.88 5.878-5.884-5.878-5.885 5.884-5.88-5.887L706 97.14l-5.883-5.877-5.884 5.884-5.88-5.885-5.886 5.884-5.88-5.885-5.886 5.888-5.88-5.885-5.88 5.878-5.883-5.877-5.882 5.883-5.884-5.885-5.884 5.885-5.88-5.885-5.886 5.876-5.89-5.878-5.88 5.884-5.884-5.885-5.88 5.877-5.89-5.878-5.875 5.884-5.89-5.885-5.88 5.884-5.884-5.887-5.88 5.884-5.884-5.885-5.883 5.88-5.88-5.88-5.887 5.885-5.877-5.885-5.888 5.876-5.88-5.88-5.89 5.885-5.877-5.885-5.89 5.877-5.88-5.878-5.883 5.876-5.884-5.878-5.88 5.884-5.885-5.888-5.885 5.877-5.884-5.878-5.88 5.884-5.888-5.886-5.885 5.884-5.886-5.885-5.88 5.88-5.884-5.88-5.88 5.884-5.885-5.885-5.882 5.882-5.882-5.885-5.884 5.878-5.882-5.878-5.884 5.884-5.883-5.882-5.884 5.885-5.886-5.884-5.88 5.877-5.88-5.878-5.89 6.03-5.884-5.887-5.88 5.876-5.885-5.88-5.884 5.878-5.88-5.88-5.885 5.885-5.887-5.884-5.885 5.877-5.88-5.878-5.886 5.883-5.883-5.886-5.885 5.884-5.88-5.884-5.887 5.884-5.883-5.884-5.884 5.885-5.884-5.883-5.886 5.884-5.88-5.884-5.88 5.877-5.89-5.878-5.88 5.883-5.886-5.885-5.88 5.884-5.89-5.884-5.876 5.877-5.89-5.88-5.88 5.885-5.883-5.885-5.88 5.884-5.88-5.886-5.89 5.884-5.88-5.885-5.885 5.877-5.878-5.88-5.887 5.885-5.88-5.887-5.89 5.877-5.88-5.877-5.88 5.882-5.884-5.885-5.886 5.877-5.88-5.878-5.885 5.875-5.884-5.878-5.88 5.884-5.884-5.885-5.88 5.877-5.89-5.877-5.878 5.877-5.88-5.877-5.886 5.884-5.885-5.886-5.882 5.884-5.884-5.886-5.885 5.88-5.883-5.88-5.883 5.885-5.885-5.886L0 97.255v29.42l5.884 5.886 5.884-5.884 5.888 5.885 5.88-5.88 5.883 5.884 5.88-5.884 5.88 5.884 5.885-5.884 5.884 5.884 5.88-5.884 5.88 5.885 5.89-5.884 5.88 5.888 5.886-5.884 5.88 5.885 5.883-5.885 5.885 5.885 5.88-5.885 5.887 5.885 5.883-5.885 5.882 5.885 5.88-5.884 5.888 5.885 5.883-5.88 5.885 5.884 5.878-5.884 5.888 5.884 5.88-5.884 5.89 5.884 5.88-5.884 5.882 5.885 5.884-5.884 5.88 5.888 5.89-5.884 5.875 5.885 5.89-5.885 5.88 5.885 5.887-5.885 5.88 5.885 5.89-5.885 5.878 5.885 5.88-5.884 5.886 5.885 5.886-5.88 5.883 5.884 5.88-5.884 5.885 5.884 5.88-5.884 5.885 5.884 5.884-5.884 5.887 5.885 5.88-5.884 5.886 5.888 5.884-5.884 5.883 5.885 5.88-5.885 5.886 5.885 5.882-5.885 5.88 5.885 5.886-5.885 5.884 5.885 5.88-5.884 5.88 5.885 5.884-5.88 5.883 5.884 5.883-5.884 5.884 5.884 5.884-5.884 5.89 5.884 5.88-5.884 5.885 5.885 5.884-5.884 5.88 5.888 5.884-5.884 5.88 5.885 5.884-5.885 5.882 5.885 5.886-5.885 5.88 5.885 5.883-5.885 5.883 5.885 5.884-5.884 5.882 5.885 5.882-5.88 5.884 5.884 5.88-5.884 5.887 5.884 5.877-5.884 5.89 5.884 5.88-5.884 5.89 5.885 5.876-5.884 5.887 5.888 5.878-5.884 5.886 5.885 5.885-5.885 5.88 5.885 5.887-5.885 5.88 5.885 5.89-5.885 5.875 5.885 5.89-5.884 5.88 5.885 5.888-5.88 5.88 5.884 5.886-5.884 5.885 5.884 5.88-5.884 5.884 5.884 5.88-5.884 5.886 5.885 5.884-5.884 5.885 5.888 5.88-5.884 5.884 5.885 5.88-5.885 5.885 5.885 5.88-5.885 5.885 5.885 5.885-5.885 5.886 5.885 5.88-5.884 5.886 5.885 5.885-5.88 5.88 5.884 5.886-5.884 5.88 5.884 5.884-5.884 5.886 5.884 5.88-5.884 5.884 5.885 5.883-5.884 5.883 5.888 5.884-5.884 5.884 5.885 5.884-5.885 5.884 5.885 5.888-5.885 5.876 5.885 5.89-5.885 5.88 5.885 5.887-5.884 5.88 5.885 5.882-5.88 5.884 5.884 5.89-5.884 5.88 5.884 5.883-5.884 5.883 5.884 5.883-5.884 5.883 5.885 5.88-5.884 5.886 5.888 5.877-5.884 5.89 5.885 5.88-5.885 5.886 5.885 5.876-5.885 5.886 5.885 5.88-5.885 5.882 5.885 5.885-5.884 5.88 5.885 5.885-5.88 5.88 5.884 5.888-5.884 5.88 5.884 5.886-5.884 5.882 5.884 5.88-5.884 5.884 5.885 5.887-5.884 5.885 5.888 5.883-5.884 5.885 5.885 5.884-5.885 5.882 5.885 5.88-5.885 5.89 5.885 5.877-5.885 5.882 5.885 5.884-5.884 5.884 5.885 5.88-5.88 5.888 5.884 5.885-5.884 5.886 5.884 5.88-5.884 5.886 5.884 5.884-5.884 5.88 5.885 5.883-5.884 5.883 5.888 5.885-5.884 5.884 5.885 5.885-5.885 5.883 5.885 5.882-5.885 5.884 5.885 5.884-5.885 5.88 5.885 5.886-5.884 5.878 5.885 5.89-5.88 5.877 5.884 5.89-5.884 5.88 5.884 5.885-5.884 5.88 5.884 5.89-5.884 5.88 5.885 5.882-5.884 5.884 5.888 5.88-5.884 5.74 5.742v.142l.08-.07.07.07 5.81-5.813 5.81 5.812.072-.07.074.07 5.81-5.814 5.81 5.813.067-.07.08.07 5.81-5.813 5.81 5.812.07-.07.078.07v-.143l5.735-5.743 5.884 5.885 5.88-5.885 5.886 5.886 5.88-5.885 5.89 5.886 5.878-5.885 5.888 5.886 5.88-5.885 5.887 5.887 5.88-5.885 5.883 5.888 5.886-5.885 5.884 5.886 5.882-5.885 5.884 5.886 5.884-5.885 5.876 5.886 5.89-5.884 5.885 5.886 5.88-5.883 5.887 5.885 5.88-5.885 5.886 5.886 5.883-5.885 5.884 5.886 5.884-5.885 5.883 5.886 5.885-5.885 5.886 5.887 5.882-5.885 5.884 5.888 5.885-5.885 5.88 5.886 5.882-5.885 5.88 5.886 5.886-5.885 5.883 5.886 5.88-5.884 5.886 5.886 5.885-5.883 5.88 5.885 5.886-5.885 5.885 5.886 5.88-5.885 5.89 5.886 5.88-5.885 5.89 5.886 5.875-5.885 5.89 5.887 5.88-5.885 5.88 5.888 5.885-5.885 5.886 5.886 5.885-5.885 5.88 5.886 5.887-5.885 5.88 5.886 5.886-5.884 5.88 5.886 5.89-5.883 5.876 5.885 5.88-5.885 5.884 5.886 5.885-5.885 5.882 5.886 5.885-5.885 5.885 5.886 5.88-5.885 5.885 5.887 5.88-5.885 5.89 5.888 5.88-5.885 5.88 5.886 5.884-5.885 5.884 5.886 5.88-5.885 5.885 5.886 5.884-5.884 5.884 5.886 5.884-5.883 5.884 5.885 5.88-5.885 5.887 5.886 5.878-5.885 5.885 5.886 5.884-5.885 5.883 5.886 5.884-5.885 5.885 5.887 5.88-5.885 5.886 5.888 5.884-5.885 5.883 5.886 5.883-5.885 5.878 5.886 5.89-5.885 5.88 5.886 5.886-5.884 5.88 5.886 5.884-5.883 5.883 5.885 5.884-5.885 5.884 5.886 5.88-5.885 5.886 5.886 5.88-5.885 5.89 5.886 5.878-5.885 5.89 5.887 5.878-5.885 5.888 5.888 5.88-5.885 5.888 5.886 5.876-5.885 5.885 5.886 5.887-5.885 5.88 5.886 5.886-5.884 5.886 5.886 5.882-5.883 5.878 5.885 5.888-5.885 5.88 5.886 5.887-5.885 5.88 5.886 5.88-5.885 5.887 5.886 5.882-5.885 5.883 5.887 5.885-5.885 5.88 5.888 5.884-5.885 5.887 5.886 5.88-5.885 5.886 5.886 5.887-5.885 5.878 5.886 5.883-5.883V97.264l-5.882-5.885z"/></defs><clipPath id="g"><use xlink:href="#f" overflow="visible"/></clipPath><linearGradient id="h" gradientUnits="userSpaceOnUse" y1="376.881" x2="1" y2="376.881" gradientTransform="matrix(2117.834 0 0 2117.834 0 -798060.188)"><stop offset="0" stop-color="#98262B"/><stop offset=".04" stop-color="#CF202F"/><stop offset=".08" stop-color="#E73E30"/><stop offset=".12" stop-color="#F58673"/><stop offset=".16" stop-color="#FAAD76"/><stop offset=".2" stop-color="#F5831F"/><stop offset=".24" stop-color="#F6A81C"/><stop offset=".28" stop-color="#FEDC00"/><stop offset=".32" stop-color="#CEDB28"/><stop offset=".36" stop-color="#039949"/><stop offset=".4" stop-color="#2C5135"/><stop offset=".44" stop-color="#164734"/><stop offset=".48" stop-color="#009878"/><stop offset=".52" stop-color="#3FC2CD"/><stop offset=".56" stop-color="#046F97"/><stop offset=".6" stop-color="#092041"/><stop offset=".64" stop-color="#1E4489"/><stop offset=".68" stop-color="#2559A9"/><stop offset=".72" stop-color="#5F8AB5"/><stop offset=".76" stop-color="#A9BCD6"/><stop offset=".8" stop-color="#7873B6"/><stop offset=".84" stop-color="#5E2B85"/><stop offset=".88" stop-color="#904299"/><stop offset=".92" stop-color="#F8B0B8"/><stop offset=".96" stop-color="#F27598"/><stop offset="1" stop-color="#EF5296"/></linearGradient><path clip-path="url(#g)" fill="url(#h)" d="M0 91.38h2117.834v41.182H0z"/><defs><path id="i" d="M2106.068 228.58l-5.88-5.885-5.88 5.884-5.885-5.89-5.89 5.885-5.878-5.885-5.882 5.885-5.887-5.885-5.882 5.885-5.884-5.885-5.886 5.885-5.883-5.885-5.874 5.884-5.887-5.885-5.88 5.88-5.888-5.885-5.88 5.884-5.89-5.885-5.88 5.884-5.88-5.885-5.88 5.884-5.893-5.886-5.88 5.884-5.876-5.888-5.89 5.884-5.876-5.885-5.888 5.884-5.88-5.885-5.888 5.884-5.88-5.885-5.888 5.884-5.878-5.885-5.89 5.883-5.878-5.885-5.882 5.88-5.884-5.884-5.885 5.884-5.883-5.884-5.88 5.884-5.888-5.884-5.88 5.884-5.888-5.885-5.878 5.884-5.888-5.888-5.88 5.883-5.883-5.885-5.886 5.885-5.88-5.885-5.886 5.885-5.884-5.885-5.884 5.885-5.883-5.885-5.883 5.884-5.878-5.885-5.888 5.88-5.88-5.884-5.883 5.884-5.884-5.884-5.883 5.884-5.882-5.884-5.883 5.884-5.88-5.885-5.886 5.884-5.885-5.888-5.884 5.884-5.88-5.885-5.885 5.885-5.88-5.88-5.887 5.88-5.88-5.885-5.89 5.885-5.877-5.885-5.884 5.885-5.883-5.885-5.885 5.884-5.882-5.884-5.884 5.88-5.884-5.884-5.88 5.884-5.886-5.884-5.88 5.884-5.885-5.884-5.88 5.884-5.89-5.885-5.88 5.885-5.885-5.888-5.88 5.884-5.886-5.884-5.884 5.885-5.877-5.884-5.89 5.885-5.883-5.884-5.883 5.885-5.883-5.884-5.886 5.884-5.882-5.885-5.884 5.88-5.88-5.884-5.885 5.885-5.882-5.884-5.883 5.885-5.885-5.884-5.88 5.885-5.886-5.885-5.88 5.884-5.89-5.888-5.88 5.884-5.886-5.885-5.88 5.885-5.884-5.885-5.88 5.885-5.884-5.88-5.884 5.88-5.882-5.885-5.884 5.885-5.878-5.885-5.89 5.884-5.876-5.886-5.89 5.88-5.88-5.884-5.884 5.884-5.884-5.884-5.882 5.884-5.884-5.884-5.884 5.884-5.885-5.885-5.888 5.883-5.88-5.888-5.887 5.884-5.883-5.88-5.88 5.88-5.88-5.886-5.884 5.885-5.886-5.886-5.887 5.885-5.88-5.88-5.883 5.88-5.74-5.747v-.14l-.074.072-.07-.073-5.808 5.81-5.814-5.81-.076.073-.065-.073-5.813 5.81-5.81-5.81-.072.075-.07-.073-5.81 5.81-5.81-5.81-.076.074-.074-.073v.14l-5.736 5.745-5.884-5.885-5.887 5.884-5.88-5.886-5.884 5.883-5.887-5.885-5.88 5.884-5.886-5.885-5.88 5.883-5.888-5.884-5.877 5.882-5.89-5.884-5.88 5.884-5.886-5.886-5.88 5.884-5.884-5.885-5.884 5.884-5.883-5.887-5.884 5.885-5.884-5.885-5.883 5.885-5.88-5.885-5.89 5.884-5.878-5.885-5.888 5.882-5.886-5.885-5.884 5.883-5.88-5.884-5.883 5.882-5.88-5.885-5.88 5.883-5.89-5.885-5.883 5.884-5.885-5.887-5.88 5.885-5.885-5.885-5.885 5.884-5.88-5.886-5.88 5.885-5.884-5.885-5.883 5.885-5.88-5.885-5.886 5.884-5.885-5.884-5.883 5.883-5.88-5.886-5.887 5.884-5.884-5.884-5.88 5.883-5.886-5.885-5.878 5.883-5.888-5.885-5.88 5.884-5.888-5.886-5.88 5.885-5.88-5.885-5.89 5.884-5.884-5.885-5.88 5.883-5.886-5.886-5.885 5.885-5.88-5.886-5.89 5.884-5.88-5.885-5.88 5.883-5.883-5.885-5.89 5.885-5.88-5.885-5.886 5.883-5.88-5.884-5.882 5.882-5.884-5.885-5.88 5.883-5.888-5.885-5.88 5.884-5.888-5.886-5.876 5.884-5.89-5.886-5.88 5.884-5.883-5.885-5.88 5.886-5.886-5.886-5.89 5.885-5.876-5.886-5.888 5.883-5.882-5.885-5.887 5.884-5.882-5.885-5.886 5.884-5.88-5.884-5.88 5.883-5.884-5.886-5.885 5.884-5.88-5.885-5.89 5.905-5.883-5.885-5.884 5.884-5.88-5.888-5.886 5.884-5.884-5.885-5.88 5.886-5.88-5.885-5.89 5.885-5.88-5.885-5.882 5.884-5.88-5.885-5.885 5.882-5.88-5.885-5.886 5.883-5.886-5.883-5.884 5.883-5.88-5.885-5.883 5.884-5.887-5.888-5.88 5.884-5.89-5.885-5.88 5.885-5.885-5.886-5.88 5.883-5.89-5.885-5.88 5.884-5.88-5.885-5.885 5.883-5.878-5.885-5.888 5.883-5.88-5.884-5.89 5.884-5.878-5.885-5.89 5.883-5.878-5.884-5.89 5.883-5.878-5.885-5.887 5.884-5.88-5.886-5.885 5.884-5.882-5.885-5.877 5.883-5.89-5.886-5.885 5.884-5.884-5.884-5.88 5.885-5.884-5.885-5.88 5.884-5.888-5.886-5.883 5.883-5.882-5.885-5.884 5.884-5.885-5.885-5.884 5.884-5.88-5.884-5.884 5.884-5.885-5.885-5.882 5.882-5.88-5.886-5.89 5.884-5.88-5.884-5.88 5.884-5.886-5.886-5.885 5.884-5.88-5.885-5.888 5.885-5.886-5.885-5.885 5.884-5.88-5.885-5.88 5.883-5.89-5.885-5.883 5.884-5.88-5.885-5.88 5.88-5.885-5.883-5.884 5.883-5.882-5.884-5.885 5.884-5.88-5.88-5.883 5.88-5.886-5.886-5.88 5.884-5.884-5.885-5.88 5.884-5.883-5.886-5.882 5.886-5.89-5.885-5.88 5.886-5.884-5.885-5.88 5.885-5.89-5.885-5.88 5.882-5.88-5.885-5.885 5.884-5.876-5.883-5.887 5.883-5.88-5.885-5.89 5.883-5.875-5.885-5.888 5.884-5.88-5.886-5.89 5.886-5.878-5.885-5.883 5.885-5.887-5.886-5.88 5.883-5.888-5.885-5.88 5.885-5.89-5.885-5.878 5.884-5.887-5.884-5.88 5.883-5.883-5.885-5.882 5.884-5.884-5.886-5.885 5.883-5.88-5.884-5.89 5.883-5.883-5.885L0 228.58v29.41l5.884 5.89 5.884-5.89 5.888 5.89 5.88-5.89 5.883 5.89 5.88-5.89 5.88 5.89 5.885-5.89 5.878 5.89 5.887-5.89 5.88 5.89 5.89-5.89 5.88 5.89 5.887-5.89 5.88 5.89 5.886-5.89 5.882 5.89 5.878-5.89 5.89 5.89 5.88-5.89 5.887 5.89 5.88-5.89 5.89 5.89 5.88-5.89 5.888 5.89 5.878-5.89 5.885 5.89 5.885-5.89 5.884 5.89 5.884-5.89 5.88 5.89 5.888-5.89 5.88 5.89 5.89-5.89 5.88 5.89 5.886-5.89 5.88 5.89 5.883-5.89 5.88 5.89 5.887-5.89 5.884 5.89 5.88-5.89 5.886 5.89 5.884-5.89 5.883 5.89 5.885-5.89 5.883 5.89 5.88-5.89 5.88 5.89 5.888-5.89 5.883 5.89 5.88-5.89 5.886 5.89 5.884-5.89 5.882 5.89 5.88-5.89 5.886 5.89 5.884-5.89 5.88 5.89 5.88-5.89 5.89 5.89 5.88-5.89 5.88 5.89 5.885-5.89 5.882 5.89 5.882-5.89 5.884 5.89 5.884-5.89 5.885 5.89 5.882-5.89 5.882 5.89 5.885-5.89 5.88 5.89 5.884-5.89 5.88 5.89 5.89-5.89 5.877 5.89 5.89-5.89 5.878 5.89 5.883-5.89 5.885 5.89 5.88-5.89 5.885 5.89 5.878-5.89 5.89 5.89 5.88-5.89 5.887 5.89 5.877-5.89 5.89 5.89 5.88-5.89 5.887 5.89 5.88-5.89 5.883 5.89 5.88-5.89 5.885 5.89 5.884-5.89 5.88 5.89 5.883-5.89 5.88 5.89 5.89-5.89 5.876 5.89 5.887-5.89 5.882 5.89 5.88-5.89 5.884 5.89 5.886-5.89 5.884 5.89 5.88-5.89 5.886 5.89 5.884-5.89 5.882 5.89 5.884-5.89 5.886 5.89 5.88-5.89 5.88 5.89 5.885-5.89 5.887 5.89 5.88-5.89 5.887 5.89 5.885-5.89 5.883 5.89 5.88-5.89 5.887 5.89 5.884-5.89 5.88 5.89 5.88-5.89 5.888 5.89 5.882-5.89 5.886 5.89 5.882-5.89 5.884 5.89 5.88-5.89 5.886 5.89 5.882-5.89 5.88 5.89 5.886-5.89 5.877 5.89 5.89-5.89 5.88 5.89 5.89-5.89 5.877 5.89 5.89-5.89 5.88 5.89 5.882-5.89 5.883 5.89 5.88-5.89 5.886 5.89 5.88-5.89 5.89 5.89 5.875-5.89 5.89 5.89 5.88-5.89 5.888 5.89 5.877-5.89 5.884 5.89 5.883-5.89 5.88 5.89 5.886-5.89 5.89 5.89 5.88-5.89 5.88 5.89 5.89-5.89 5.88 5.89 5.885-5.89 5.88 5.89 5.883-5.89 5.88 5.89 5.884-5.89 5.885 5.89 5.88-5.89 5.885 5.89 5.886-5.89 5.886 5.89 5.88-5.89 5.885 5.89 5.883-5.89 5.88 5.89 5.88-5.89 5.884 5.89 5.886-5.89 5.882 5.89 5.884-5.89 5.882 5.89 5.88-5.89 5.886 5.89 5.884-5.89 5.885 5.89 5.88-5.89 5.886 5.89 5.88-5.89 5.888 5.89 5.88-5.89 5.884 5.89 5.886-5.89 5.883 5.89 5.883-5.89 5.885 5.89 5.883-5.89 5.878 5.89 5.89-5.89 5.88 5.89 5.888-5.89 5.877 5.89 5.89-5.89 5.877 5.89 5.882-5.89 5.885 5.89 5.884-5.89 5.88 5.89 5.886-5.89 5.883 5.89 5.88-5.89 5.886 5.89 5.88-5.89 5.74 5.74v.15l.073-.073.075.073 5.81-5.818 5.81 5.818.067-.073.08.073 5.81-5.818 5.81 5.818.066-.073.08.073 5.814-5.818 5.81 5.818.07-.073.075.073v-.15l5.74-5.74 5.88 5.89 5.88-5.89 5.886 5.89 5.885-5.89 5.885 5.89 5.88-5.89 5.88 5.89 5.884-5.89 5.885 5.89 5.88-5.89 5.884 5.89 5.883-5.89 5.884 5.89 5.884-5.89 5.883 5.89 5.884-5.89 5.88 5.89 5.884-5.89 5.89 5.89 5.877-5.89 5.89 5.89 5.878-5.89 5.885 5.89 5.884-5.89 5.883 5.89 5.884-5.89 5.884 5.89 5.884-5.89 5.877 5.89 5.89-5.89 5.877 5.89 5.89-5.89 5.88 5.89 5.887-5.89 5.877 5.89 5.884-5.89 5.885 5.89 5.883-5.89 5.883 5.89 5.883-5.89 5.883 5.89 5.883-5.89 5.886 5.89 5.882-5.89 5.882 5.89 5.882-5.89 5.89 5.89 5.874-5.89 5.885 5.89 5.885-5.89 5.88 5.89 5.884-5.89 5.883 5.89 5.885-5.89 5.88 5.89 5.885-5.89 5.88 5.89 5.886-5.89 5.88 5.89 5.883-5.89 5.884 5.89 5.882-5.89 5.882 5.89 5.884-5.89 5.884 5.89 5.884-5.89 5.885 5.89 5.88-5.89 5.883 5.89 5.883-5.89 5.884 5.89 5.883-5.89 5.883 5.89 5.884-5.89 5.886 5.89 5.882-5.89 5.884 5.89 5.883-5.89 5.883 5.89 5.883-5.89 5.884 5.89 5.88-5.89 5.885 5.89 5.876-5.89 5.883 5.89 5.883-5.89 5.883 5.89 5.885-5.89 5.886 5.89 5.88-5.89 5.887 5.89 5.884-5.89 5.88 5.89 5.89-5.89 5.877 5.89 5.89-5.89 5.88 5.89 5.886-5.89 5.88 5.89 5.885-5.89 5.887 5.89 5.885-5.89 5.882 5.89 5.88-5.89 5.89 5.89 5.875-5.89 5.89 5.89 5.878-5.89 5.89 5.89 5.88-5.89 5.887 5.89 5.88-5.89 5.89 5.89 5.875-5.89 5.88 5.89 5.89-5.89 5.88 5.89 5.886-5.89 5.88 5.89 5.89-5.89 5.88 5.89 5.888-5.89 5.88 5.89 5.886-5.89 5.88 5.89 5.88-5.89 5.887 5.89 5.886-5.89 5.882 5.89 5.882-5.89 5.886 5.89 5.885-5.89 5.885 5.89 5.88-5.89 5.887 5.89 5.884-5.89 5.88 5.89 5.882-5.89v-29.41l-5.884-5.885z"/></defs><clipPath id="j"><use xlink:href="#i" overflow="visible"/></clipPath><linearGradient id="k" gradientUnits="userSpaceOnUse" y1="376.882" x2="1" y2="376.882" gradientTransform="matrix(2117.835 0 0 2117.835 0 -797930.563)"><stop offset="0" stop-color="#98262B"/><stop offset=".04" stop-color="#CF202F"/><stop offset=".08" stop-color="#E73E30"/><stop offset=".12" stop-color="#F58673"/><stop offset=".16" stop-color="#FAAD76"/><stop offset=".2" stop-color="#F5831F"/><stop offset=".24" stop-color="#F6A81C"/><stop offset=".28" stop-color="#FEDC00"/><stop offset=".32" stop-color="#CEDB28"/><stop offset=".36" stop-color="#039949"/><stop offset=".4" stop-color="#2C5135"/><stop offset=".44" stop-color="#164734"/><stop offset=".48" stop-color="#009878"/><stop offset=".52" stop-color="#3FC2CD"/><stop offset=".56" stop-color="#046F97"/><stop offset=".6" stop-color="#092041"/><stop offset=".64" stop-color="#1E4489"/><stop offset=".68" stop-color="#2559A9"/><stop offset=".72" stop-color="#5F8AB5"/><stop offset=".76" stop-color="#A9BCD6"/><stop offset=".8" stop-color="#7873B6"/><stop offset=".84" stop-color="#5E2B85"/><stop offset=".88" stop-color="#904299"/><stop offset=".92" stop-color="#F8B0B8"/><stop offset=".96" stop-color="#F27598"/><stop offset="1" stop-color="#EF5296"/></linearGradient><path clip-path="url(#j)" fill="url(#k)" d="M0 222.695h2117.835v41.185H0z"/></svg>